<?xml version="1.0" encoding="utf-8"?>
<!-- Generator: Adobe Illustrator 16.0.4, SVG Export Plug-In . SVG Version: 6.00 Build 0)  -->
<!DOCTYPE svg PUBLIC "-//W3C//DTD SVG 1.1//EN" "http://www.w3.org/Graphics/SVG/1.1/DTD/svg11.dtd">
<svg version="1.1" id="Layer_1" xmlns="http://www.w3.org/2000/svg" xmlns:xlink="http://www.w3.org/1999/xlink" x="0px" y="0px"
	 width="317.949px" height="323.078px" viewBox="0 0 317.949 323.078" enable-background="new 0 0 317.949 323.078"
	 xml:space="preserve">
<circle fill="#FFF200" cx="160.107" cy="133.89" r="104.086"/>
<path fill="#FFFFFF" d="M127.461,145.423c0,0,13.672-17.417,18.825-53.955c0.234,0.234,2.606-10.572-12.384-4.716
	c0.468,0.233-4.919-12.882,29.278-14.288c0.234-0.234,31.62-3.045,27.872,18.972c0,0-0.938,10.306-14.288,18.503
	c-0.234,0,31.619,0.233,24.358,40.52c0,0.234-7.261,35.369-38.177,42.393c0,0-33.493,11.478-44.501-12.882
	c0-0.235-4.685-18.269,16.864-27.169c0,0.233,17.8-5.153,22.017,5.855c-0.235-0.234,1.054,4.86-1.054,5.915
	c0.176,0.175-2.475,2.812-5.445-4.918c0.175,0.176-2.459-2.811-8.784-0.176c0.176-0.176-11.593,3.337-8.607,16.688
	c0,0.526,10.54,20.377,37.767,5.797c0.353,0,13.702-7.027,17.039-29.161c0.353-0.176,10.403-35.429-27.189-35.078
	c0,0.351-9.81-4.971,3.534-7.784c0.352,0,14.755-5.387,15.691-16.161c0.47,0.468,5.621-22.719-22.952-13.116
	c0.234,0.234-12.414,41.691-14.287,62.77C143.271,143.667,127.461,145.423,127.461,145.423z"/>
<rect x="35.106" y="256.41" fill="none" width="237.18" height="46.152"/>
<text transform="matrix(1 0 0 1 35.1069 282.3081)" font-family="'Roboto-ThinItalic'" font-size="34">  UX &amp; WEB DEV</text>
</svg>
